<svg width="184" height="184" viewBox="0 0 184 184" fill="none" xmlns="http://www.w3.org/2000/svg">
<path d="M179.646 68.0547C192.67 116.661 163.825 166.622 115.219 179.646C66.6126 192.67 16.6514 163.825 3.62737 115.219C-9.39664 66.6126 19.4485 16.6514 68.0547 3.62737C116.661 -9.39664 166.622 19.4485 179.646 68.0547ZM97.8634 114.875C110.697 111.436 118.314 98.2442 114.875 85.4101C111.436 72.5761 98.2442 64.9597 85.4101 68.3986C72.576 71.8375 64.9597 85.0294 68.3986 97.8634C71.8375 110.697 85.0293 118.314 97.8634 114.875ZM127.589 82.449C132.943 102.43 121.085 122.968 101.104 128.322C81.1229 133.676 60.5849 121.818 55.231 101.837C49.8771 81.8561 61.7347 61.3181 81.7158 55.9642C101.697 50.6103 122.235 62.4679 127.589 82.449ZM101.622 130.254C122.67 124.614 135.16 102.979 129.521 81.9313C123.881 60.8833 102.246 48.3925 81.1981 54.0323C60.1502 59.6721 47.6593 81.3068 53.2991 102.355C58.9389 123.403 80.5736 135.894 101.622 130.254Z" fill="#EFF6F1"/>
<path d="M179.646 68.0547C192.67 116.661 163.825 166.622 115.219 179.646C66.6126 192.67 16.6514 163.825 3.62737 115.219C-9.39664 66.6126 19.4485 16.6514 68.0547 3.62737C116.661 -9.39664 166.622 19.4485 179.646 68.0547ZM97.8634 114.875C110.697 111.436 118.314 98.2442 114.875 85.4101C111.436 72.5761 98.2442 64.9597 85.4101 68.3986C72.576 71.8375 64.9597 85.0294 68.3986 97.8634C71.8375 110.697 85.0293 118.314 97.8634 114.875ZM127.589 82.449C132.943 102.43 121.085 122.968 101.104 128.322C81.1229 133.676 60.5849 121.818 55.231 101.837C49.8771 81.8561 61.7347 61.3181 81.7158 55.9642C101.697 50.6103 122.235 62.4679 127.589 82.449ZM101.622 130.254C122.67 124.614 135.16 102.979 129.521 81.9313C123.881 60.8833 102.246 48.3925 81.1981 54.0323C60.1502 59.6721 47.6593 81.3068 53.2991 102.355C58.9389 123.403 80.5736 135.894 101.622 130.254Z" fill="url(#paint0_linear_29_115)" fill-opacity="0.2"/>
<path d="M179.646 68.0547C192.67 116.661 163.825 166.622 115.219 179.646C66.6126 192.67 16.6514 163.825 3.62737 115.219C-9.39664 66.6126 19.4485 16.6514 68.0547 3.62737C116.661 -9.39664 166.622 19.4485 179.646 68.0547ZM97.8634 114.875C110.697 111.436 118.314 98.2442 114.875 85.4101C111.436 72.5761 98.2442 64.9597 85.4101 68.3986C72.576 71.8375 64.9597 85.0294 68.3986 97.8634C71.8375 110.697 85.0293 118.314 97.8634 114.875ZM127.589 82.449C132.943 102.43 121.085 122.968 101.104 128.322C81.1229 133.676 60.5849 121.818 55.231 101.837C49.8771 81.8561 61.7347 61.3181 81.7158 55.9642C101.697 50.6103 122.235 62.4679 127.589 82.449ZM101.622 130.254C122.67 124.614 135.16 102.979 129.521 81.9313C123.881 60.8833 102.246 48.3925 81.1981 54.0323C60.1502 59.6721 47.6593 81.3068 53.2991 102.355C58.9389 123.403 80.5736 135.894 101.622 130.254Z" stroke="#BA55D3"/>
<defs>
<linearGradient id="paint0_linear_29_115" x1="47.0755" y1="28.152" x2="78.1154" y2="17.5766" gradientUnits="userSpaceOnUse">
<stop offset="0.0729167" stop-color="#FFFEFF" stop-opacity="0"/>
<stop offset="0.375" stop-color="#81EF70"/>
<stop offset="0.46875" stop-color="#EF9670"/>
<stop offset="0.5625" stop-color="#707CEF"/>
<stop offset="0.6875" stop-color="#9D24D6"/>
<stop offset="0.78125" stop-color="#D62424"/>
<stop offset="1" stop-color="#FAEEFF" stop-opacity="0"/>
</linearGradient>
</defs>
</svg>
