<svg width="184" height="184" viewBox="0 0 184 184" fill="none" xmlns="http://www.w3.org/2000/svg">
<path d="M179.405 68.1195C192.393 116.592 163.627 166.416 115.154 179.405C66.6813 192.393 16.8571 163.627 3.86886 115.154C-9.11942 66.6813 19.6466 16.8571 68.1195 3.86886C116.592 -9.11942 166.416 19.6466 179.405 68.1195ZM97.9281 115.116C110.896 111.642 118.591 98.3129 115.116 85.3454C111.642 72.378 98.3128 64.6825 85.3454 68.1572C72.378 71.6318 64.6825 84.9607 68.1571 97.9281C71.6317 110.896 84.9607 118.591 97.9281 115.116ZM127.347 82.5137C132.665 102.361 120.887 122.762 101.039 128.08C81.1916 133.399 60.7906 121.62 55.4725 101.772C50.1543 81.9248 61.9328 61.5238 81.7805 56.2057C101.628 50.8875 122.029 62.666 127.347 82.5137ZM101.686 130.495C122.868 124.82 135.438 103.048 129.762 81.8666C124.087 60.6853 102.315 48.1153 81.1334 53.7908C59.9521 59.4664 47.3821 81.2382 53.0576 102.42C58.7332 123.601 80.505 136.171 101.686 130.495Z" fill="#EFF6F1"/>
<path d="M179.405 68.1195C192.393 116.592 163.627 166.416 115.154 179.405C66.6813 192.393 16.8571 163.627 3.86886 115.154C-9.11942 66.6813 19.6466 16.8571 68.1195 3.86886C116.592 -9.11942 166.416 19.6466 179.405 68.1195ZM97.9281 115.116C110.896 111.642 118.591 98.3129 115.116 85.3454C111.642 72.378 98.3128 64.6825 85.3454 68.1572C72.378 71.6318 64.6825 84.9607 68.1571 97.9281C71.6317 110.896 84.9607 118.591 97.9281 115.116ZM127.347 82.5137C132.665 102.361 120.887 122.762 101.039 128.08C81.1916 133.399 60.7906 121.62 55.4725 101.772C50.1543 81.9248 61.9328 61.5238 81.7805 56.2057C101.628 50.8875 122.029 62.666 127.347 82.5137ZM101.686 130.495C122.868 124.82 135.438 103.048 129.762 81.8666C124.087 60.6853 102.315 48.1153 81.1334 53.7908C59.9521 59.4664 47.3821 81.2382 53.0576 102.42C58.7332 123.601 80.505 136.171 101.686 130.495Z" fill="url(#paint0_linear_29_115)" fill-opacity="0.25"/>
<path d="M179.405 68.1195C192.393 116.592 163.627 166.416 115.154 179.405C66.6813 192.393 16.8571 163.627 3.86886 115.154C-9.11942 66.6813 19.6466 16.8571 68.1195 3.86886C116.592 -9.11942 166.416 19.6466 179.405 68.1195ZM97.9281 115.116C110.896 111.642 118.591 98.3129 115.116 85.3454C111.642 72.378 98.3128 64.6825 85.3454 68.1572C72.378 71.6318 64.6825 84.9607 68.1571 97.9281C71.6317 110.896 84.9607 118.591 97.9281 115.116ZM127.347 82.5137C132.665 102.361 120.887 122.762 101.039 128.08C81.1916 133.399 60.7906 121.62 55.4725 101.772C50.1543 81.9248 61.9328 61.5238 81.7805 56.2057C101.628 50.8875 122.029 62.666 127.347 82.5137ZM101.686 130.495C122.868 124.82 135.438 103.048 129.762 81.8666C124.087 60.6853 102.315 48.1153 81.1334 53.7908C59.9521 59.4664 47.3821 81.2382 53.0576 102.42C58.7332 123.601 80.505 136.171 101.686 130.495Z" stroke="#BA55D3" stroke-width="1.5"/>
<defs>
<linearGradient id="paint0_linear_29_115" x1="33.5" y1="31.5" x2="92" y2="14" gradientUnits="userSpaceOnUse">
<stop offset="0.0729167" stop-color="#FFFEFF" stop-opacity="0"/>
<stop offset="0.375" stop-color="#81EF70"/>
<stop offset="0.46875" stop-color="#EF9670"/>
<stop offset="0.5625" stop-color="#707CEF"/>
<stop offset="0.6875" stop-color="#9D24D6"/>
<stop offset="0.78125" stop-color="#D62424"/>
<stop offset="1" stop-color="#FAEEFF" stop-opacity="0"/>
</linearGradient>
</defs>
</svg>
