<svg width="211" height="134" viewBox="0 0 211 134" fill="none" xmlns="http://www.w3.org/2000/svg">
<rect x="0.75" y="0.75" width="209.5" height="132.5" rx="1.25" fill="#EFF6F1" stroke="#BA55D3" stroke-width="1.5"/>
<circle cx="62.5" cy="54.5" r="38.5" fill="#BA55D3"/>
<circle cx="147.5" cy="54.5" r="38.5" fill="#BA55D3"/>
<mask id="path-4-inside-1_28_81" fill="white">
<path fill-rule="evenodd" clip-rule="evenodd" d="M14 9C12.8954 9 12 9.89543 12 11V97C12 98.1046 12.8954 99 14 99H198C199.105 99 200 98.1046 200 97V11C200 9.89543 199.105 9 198 9H14ZM58.5 29C44.4167 29 33 40.4167 33 54.5C33 68.5833 44.4167 80 58.5 80H152.5C166.583 80 178 68.5833 178 54.5C178 40.4167 166.583 29 152.5 29H58.5ZM82 54C82 64.4934 73.4934 73 63 73C52.5066 73 44 64.4934 44 54C44 43.5066 52.5066 35 63 35C73.4934 35 82 43.5066 82 54ZM63 67C70.1797 67 76 61.1797 76 54C76 46.8203 70.1797 41 63 41C55.8203 41 50 46.8203 50 54C50 61.1797 55.8203 67 63 67ZM167 54C167 64.4934 158.493 73 148 73C137.507 73 129 64.4934 129 54C129 43.5066 137.507 35 148 35C158.493 35 167 43.5066 167 54ZM148 67C155.18 67 161 61.1797 161 54C161 46.8203 155.18 41 148 41C140.82 41 135 46.8203 135 54C135 61.1797 140.82 67 148 67Z"/>
</mask>
<path fill-rule="evenodd" clip-rule="evenodd" d="M14 9C12.8954 9 12 9.89543 12 11V97C12 98.1046 12.8954 99 14 99H198C199.105 99 200 98.1046 200 97V11C200 9.89543 199.105 9 198 9H14ZM58.5 29C44.4167 29 33 40.4167 33 54.5C33 68.5833 44.4167 80 58.5 80H152.5C166.583 80 178 68.5833 178 54.5C178 40.4167 166.583 29 152.5 29H58.5ZM82 54C82 64.4934 73.4934 73 63 73C52.5066 73 44 64.4934 44 54C44 43.5066 52.5066 35 63 35C73.4934 35 82 43.5066 82 54ZM63 67C70.1797 67 76 61.1797 76 54C76 46.8203 70.1797 41 63 41C55.8203 41 50 46.8203 50 54C50 61.1797 55.8203 67 63 67ZM167 54C167 64.4934 158.493 73 148 73C137.507 73 129 64.4934 129 54C129 43.5066 137.507 35 148 35C158.493 35 167 43.5066 167 54ZM148 67C155.18 67 161 61.1797 161 54C161 46.8203 155.18 41 148 41C140.82 41 135 46.8203 135 54C135 61.1797 140.82 67 148 67Z" fill="#EFF6F1"/>
<path fill-rule="evenodd" clip-rule="evenodd" d="M14 9C12.8954 9 12 9.89543 12 11V97C12 98.1046 12.8954 99 14 99H198C199.105 99 200 98.1046 200 97V11C200 9.89543 199.105 9 198 9H14ZM58.5 29C44.4167 29 33 40.4167 33 54.5C33 68.5833 44.4167 80 58.5 80H152.5C166.583 80 178 68.5833 178 54.5C178 40.4167 166.583 29 152.5 29H58.5ZM82 54C82 64.4934 73.4934 73 63 73C52.5066 73 44 64.4934 44 54C44 43.5066 52.5066 35 63 35C73.4934 35 82 43.5066 82 54ZM63 67C70.1797 67 76 61.1797 76 54C76 46.8203 70.1797 41 63 41C55.8203 41 50 46.8203 50 54C50 61.1797 55.8203 67 63 67ZM167 54C167 64.4934 158.493 73 148 73C137.507 73 129 64.4934 129 54C129 43.5066 137.507 35 148 35C158.493 35 167 43.5066 167 54ZM148 67C155.18 67 161 61.1797 161 54C161 46.8203 155.18 41 148 41C140.82 41 135 46.8203 135 54C135 61.1797 140.82 67 148 67Z" fill="url(#paint0_linear_28_81)" fill-opacity="0.25"/>
<path d="M13.5 11C13.5 10.7239 13.7239 10.5 14 10.5V7.5C12.067 7.5 10.5 9.067 10.5 11H13.5ZM13.5 97V11H10.5V97H13.5ZM14 97.5C13.7239 97.5 13.5 97.2761 13.5 97H10.5C10.5 98.933 12.067 100.5 14 100.5V97.5ZM198 97.5H14V100.5H198V97.5ZM198.5 97C198.5 97.2761 198.276 97.5 198 97.5V100.5C199.933 100.5 201.5 98.933 201.5 97H198.5ZM198.5 11V97H201.5V11H198.5ZM198 10.5C198.276 10.5 198.5 10.7239 198.5 11H201.5C201.5 9.067 199.933 7.5 198 7.5V10.5ZM14 10.5H198V7.5H14V10.5ZM34.5 54.5C34.5 41.2452 45.2452 30.5 58.5 30.5V27.5C43.5883 27.5 31.5 39.5883 31.5 54.5H34.5ZM58.5 78.5C45.2452 78.5 34.5 67.7548 34.5 54.5H31.5C31.5 69.4117 43.5883 81.5 58.5 81.5V78.5ZM152.5 78.5H58.5V81.5H152.5V78.5ZM176.5 54.5C176.5 67.7548 165.755 78.5 152.5 78.5V81.5C167.412 81.5 179.5 69.4117 179.5 54.5H176.5ZM152.5 30.5C165.755 30.5 176.5 41.2452 176.5 54.5H179.5C179.5 39.5883 167.412 27.5 152.5 27.5V30.5ZM58.5 30.5H152.5V27.5H58.5V30.5ZM63 74.5C74.3218 74.5 83.5 65.3218 83.5 54H80.5C80.5 63.665 72.665 71.5 63 71.5V74.5ZM42.5 54C42.5 65.3218 51.6782 74.5 63 74.5V71.5C53.335 71.5 45.5 63.665 45.5 54H42.5ZM63 33.5C51.6782 33.5 42.5 42.6782 42.5 54H45.5C45.5 44.335 53.335 36.5 63 36.5V33.5ZM83.5 54C83.5 42.6782 74.3218 33.5 63 33.5V36.5C72.665 36.5 80.5 44.335 80.5 54H83.5ZM74.5 54C74.5 60.3513 69.3513 65.5 63 65.5V68.5C71.0081 68.5 77.5 62.0081 77.5 54H74.5ZM63 42.5C69.3513 42.5 74.5 47.6487 74.5 54H77.5C77.5 45.9919 71.0081 39.5 63 39.5V42.5ZM51.5 54C51.5 47.6487 56.6487 42.5 63 42.5V39.5C54.9919 39.5 48.5 45.9919 48.5 54H51.5ZM63 65.5C56.6487 65.5 51.5 60.3513 51.5 54H48.5C48.5 62.0081 54.9919 68.5 63 68.5V65.5ZM148 74.5C159.322 74.5 168.5 65.3218 168.5 54H165.5C165.5 63.665 157.665 71.5 148 71.5V74.5ZM127.5 54C127.5 65.3218 136.678 74.5 148 74.5V71.5C138.335 71.5 130.5 63.665 130.5 54H127.5ZM148 33.5C136.678 33.5 127.5 42.6782 127.5 54H130.5C130.5 44.335 138.335 36.5 148 36.5V33.5ZM168.5 54C168.5 42.6782 159.322 33.5 148 33.5V36.5C157.665 36.5 165.5 44.335 165.5 54H168.5ZM159.5 54C159.5 60.3513 154.351 65.5 148 65.5V68.5C156.008 68.5 162.5 62.0081 162.5 54H159.5ZM148 42.5C154.351 42.5 159.5 47.6487 159.5 54H162.5C162.5 45.9919 156.008 39.5 148 39.5V42.5ZM136.5 54C136.5 47.6487 141.649 42.5 148 42.5V39.5C139.992 39.5 133.5 45.9919 133.5 54H136.5ZM148 65.5C141.649 65.5 136.5 60.3513 136.5 54H133.5C133.5 62.0081 139.992 68.5 148 68.5V65.5Z" fill="#BA55D3" mask="url(#path-4-inside-1_28_81)"/>
<circle cx="56.8101" cy="121" r="5.25" fill="#EFF6F1" stroke="#BA55D3" stroke-width="1.5"/>
<circle cx="84.8101" cy="111.216" r="5.25" fill="#EFF6F1" stroke="#BA55D3" stroke-width="1.5"/>
<path d="M24.8101 133.216L59.8101 98.2161" stroke="#BA55D3" stroke-width="1.5"/>
<circle r="5.25" transform="matrix(-1 0 0 1 153.81 121)" fill="#EFF6F1" stroke="#BA55D3" stroke-width="1.5"/>
<circle r="5.25" transform="matrix(-1 0 0 1 125.81 111.216)" fill="#EFF6F1" stroke="#BA55D3" stroke-width="1.5"/>
<path d="M185.81 133.216L150.81 98.2161" stroke="#BA55D3" stroke-width="1.5"/>
<circle cx="62.4995" cy="53.8684" r="13.75" fill="#EFF6F1" stroke="#BA55D3" stroke-width="1.5"/>
<circle cx="147.5" cy="53.8684" r="13.75" fill="#EFF6F1" stroke="#BA55D3" stroke-width="1.5"/>
<defs>
<linearGradient id="paint0_linear_28_81" x1="84" y1="38.5" x2="123.465" y2="87.052" gradientUnits="userSpaceOnUse">
<stop offset="0.0729167" stop-color="#FFFEFF" stop-opacity="0"/>
<stop offset="0.375" stop-color="#81EF70"/>
<stop offset="0.46875" stop-color="#EF9670"/>
<stop offset="0.5625" stop-color="#707CEF"/>
<stop offset="0.6875" stop-color="#9D24D6"/>
<stop offset="0.78125" stop-color="#D62424"/>
<stop offset="1" stop-color="#FAEEFF" stop-opacity="0"/>
</linearGradient>
</defs>
</svg>
