<svg width="211" height="134" viewBox="0 0 211 134" fill="none" xmlns="http://www.w3.org/2000/svg">
<rect x="0.5" y="0.5" width="210" height="133" rx="1.5" fill="#EFF6F1" stroke="#BA55D3"/>
<circle cx="62.5" cy="54.5" r="38.5" fill="#BA55D3"/>
<circle cx="147.5" cy="54.5" r="38.5" fill="#BA55D3"/>
<mask id="path-4-inside-1_28_81" fill="white">
<path fill-rule="evenodd" clip-rule="evenodd" d="M14 9C12.8954 9 12 9.89543 12 11L12 97C12 98.1046 12.8954 99 14 99H198C199.105 99 200 98.1046 200 97L200 11C200 9.89543 199.105 9 198 9H14ZM58.5 29C44.4167 29 33 40.4167 33 54.5C33 68.5833 44.4167 80 58.5 80H152.5C166.583 80 178 68.5833 178 54.5C178 40.4167 166.583 29 152.5 29H58.5ZM82 54C82 64.4934 73.4934 73 63 73C52.5066 73 44 64.4934 44 54C44 43.5066 52.5066 35 63 35C73.4934 35 82 43.5066 82 54ZM63 67C70.1797 67 76 61.1797 76 54C76 46.8203 70.1797 41 63 41C55.8203 41 50 46.8203 50 54C50 61.1797 55.8203 67 63 67ZM167 54C167 64.4934 158.493 73 148 73C137.507 73 129 64.4934 129 54C129 43.5066 137.507 35 148 35C158.493 35 167 43.5066 167 54ZM148 67C155.18 67 161 61.1797 161 54C161 46.8203 155.18 41 148 41C140.82 41 135 46.8203 135 54C135 61.1797 140.82 67 148 67Z"/>
</mask>
<path fill-rule="evenodd" clip-rule="evenodd" d="M14 9C12.8954 9 12 9.89543 12 11L12 97C12 98.1046 12.8954 99 14 99H198C199.105 99 200 98.1046 200 97L200 11C200 9.89543 199.105 9 198 9H14ZM58.5 29C44.4167 29 33 40.4167 33 54.5C33 68.5833 44.4167 80 58.5 80H152.5C166.583 80 178 68.5833 178 54.5C178 40.4167 166.583 29 152.5 29H58.5ZM82 54C82 64.4934 73.4934 73 63 73C52.5066 73 44 64.4934 44 54C44 43.5066 52.5066 35 63 35C73.4934 35 82 43.5066 82 54ZM63 67C70.1797 67 76 61.1797 76 54C76 46.8203 70.1797 41 63 41C55.8203 41 50 46.8203 50 54C50 61.1797 55.8203 67 63 67ZM167 54C167 64.4934 158.493 73 148 73C137.507 73 129 64.4934 129 54C129 43.5066 137.507 35 148 35C158.493 35 167 43.5066 167 54ZM148 67C155.18 67 161 61.1797 161 54C161 46.8203 155.18 41 148 41C140.82 41 135 46.8203 135 54C135 61.1797 140.82 67 148 67Z" fill="#EFF6F1"/>
<path d="M12 11H13H12ZM12 97H11H12ZM200 97H199H200ZM200 11H201H200ZM13 11C13 10.4477 13.4477 10 14 10V8C12.3431 8 11 9.34315 11 11H13ZM13 97L13 11L11 11L11 97L13 97ZM14 98C13.4477 98 13 97.5523 13 97H11C11 98.6569 12.3431 100 14 100V98ZM198 98H14V100H198V98ZM199 97C199 97.5523 198.552 98 198 98V100C199.657 100 201 98.6569 201 97H199ZM199 11L199 97H201L201 11L199 11ZM198 10C198.552 10 199 10.4477 199 11H201C201 9.34315 199.657 8 198 8V10ZM14 10H198V8H14V10ZM34 54.5C34 40.969 44.969 30 58.5 30V28C43.8645 28 32 39.8645 32 54.5H34ZM58.5 79C44.969 79 34 68.031 34 54.5H32C32 69.1355 43.8645 81 58.5 81V79ZM152.5 79H58.5V81H152.5V79ZM177 54.5C177 68.031 166.031 79 152.5 79V81C167.136 81 179 69.1355 179 54.5H177ZM152.5 30C166.031 30 177 40.969 177 54.5H179C179 39.8645 167.136 28 152.5 28V30ZM58.5 30H152.5V28H58.5V30ZM63 74C74.0457 74 83 65.0457 83 54H81C81 63.9411 72.9411 72 63 72V74ZM43 54C43 65.0457 51.9543 74 63 74V72C53.0589 72 45 63.9411 45 54H43ZM63 34C51.9543 34 43 42.9543 43 54H45C45 44.0589 53.0589 36 63 36V34ZM83 54C83 42.9543 74.0457 34 63 34V36C72.9411 36 81 44.0589 81 54H83ZM75 54C75 60.6274 69.6274 66 63 66V68C70.732 68 77 61.732 77 54H75ZM63 42C69.6274 42 75 47.3726 75 54H77C77 46.268 70.732 40 63 40V42ZM51 54C51 47.3726 56.3726 42 63 42V40C55.268 40 49 46.268 49 54H51ZM63 66C56.3726 66 51 60.6274 51 54H49C49 61.732 55.268 68 63 68V66ZM148 74C159.046 74 168 65.0457 168 54H166C166 63.9411 157.941 72 148 72V74ZM128 54C128 65.0457 136.954 74 148 74V72C138.059 72 130 63.9411 130 54H128ZM148 34C136.954 34 128 42.9543 128 54H130C130 44.0589 138.059 36 148 36V34ZM168 54C168 42.9543 159.046 34 148 34V36C157.941 36 166 44.0589 166 54H168ZM160 54C160 60.6274 154.627 66 148 66V68C155.732 68 162 61.732 162 54H160ZM148 42C154.627 42 160 47.3726 160 54H162C162 46.268 155.732 40 148 40V42ZM136 54C136 47.3726 141.373 42 148 42V40C140.268 40 134 46.268 134 54H136ZM148 66C141.373 66 136 60.6274 136 54H134C134 61.732 140.268 68 148 68V66Z" fill="#BA55D3" mask="url(#path-4-inside-1_28_81)"/>
<circle cx="56.8101" cy="121" r="5.5" fill="#EFF6F1" stroke="#BA55D3"/>
<circle cx="84.8101" cy="111.216" r="5.5" fill="#EFF6F1" stroke="#BA55D3"/>
<path d="M24.8101 133.216L59.8101 98.2161" stroke="#BA55D3"/>
<circle r="5.5" transform="matrix(-1 0 0 1 153.81 121)" fill="#EFF6F1" stroke="#BA55D3"/>
<circle r="5.5" transform="matrix(-1 0 0 1 125.81 111.216)" fill="#EFF6F1" stroke="#BA55D3"/>
<path d="M185.81 133.216L150.81 98.2161" stroke="#BA55D3"/>
<circle cx="62.4995" cy="53.8684" r="14" fill="#EFF6F1" stroke="#BA55D3"/>
<circle cx="147.5" cy="53.8684" r="14" fill="#EFF6F1" stroke="#BA55D3"/>
</svg>
